<?xml version="1.0" encoding="utf-8"?>
<!-- Generator: Adobe Illustrator 27.5.0, SVG Export Plug-In . SVG Version: 6.00 Build 0)  -->
<svg version="1.1" xmlns="http://www.w3.org/2000/svg" xmlns:xlink="http://www.w3.org/1999/xlink" x="0px" y="0px"
	 viewBox="0 0 500 500" style="enable-background:new 0 0 500 500;" xml:space="preserve">
<g id="BACKGROUND">
	<rect x="0.001" y="0" style="fill:#FFFFFF;" width="500" height="500"/>
</g>
<g id="OBJECTS">
	<g>
		<rect x="33.411" y="409.167" style="fill:#E5E5E5;" width="433" height="61.499"/>
		<g>
			<g>
				<g>
					<g>
						<g>
							<g>
								<g>
									<g>
										<polygon style="fill:#FFC35A;" points="450.871,140.847 452.795,134.445 454.688,140.785 452.433,147.495 										"/>
									</g>
									<g>
										<polygon style="fill:#FFC35A;" points="453.056,142.817 446.654,140.892 452.995,139 459.705,141.255 										"/>
									</g>
								</g>
							</g>
							<g>
								<g>
									<g>
										<polygon style="fill:#FFC35A;" points="450.809,187.53 452.734,181.128 454.626,187.469 452.371,194.179 										"/>
									</g>
									<g>
										<polygon style="fill:#FFC35A;" points="452.995,189.5 446.592,187.575 452.933,185.683 459.643,187.938 										"/>
									</g>
								</g>
							</g>
						</g>
						<g>
							<g>
								<g>
									<g>
										<polygon style="fill:#FFC35A;" points="252.537,98.513 254.462,92.111 256.354,98.452 254.099,105.162 										"/>
									</g>
									<g>
										<polygon style="fill:#FFC35A;" points="254.723,100.483 248.321,98.559 254.661,96.667 261.371,98.921 										"/>
									</g>
								</g>
							</g>
							<g>
								<g>
									<g>
										<polygon style="fill:#FFC35A;" points="221.871,72.847 223.795,66.445 225.688,72.785 223.433,79.495 										"/>
									</g>
									<g>
										<polygon style="fill:#FFC35A;" points="224.056,74.817 217.654,72.892 223.995,71 230.705,73.255 										"/>
									</g>
								</g>
							</g>
							<g>
								<g>
									<g>
										<polygon style="fill:#FFC35A;" points="280.871,74.513 282.795,68.111 284.688,74.452 282.433,81.162 										"/>
									</g>
									<g>
										<polygon style="fill:#FFC35A;" points="283.056,76.483 276.654,74.559 282.995,72.667 289.705,74.921 										"/>
									</g>
								</g>
							</g>
						</g>
						<g>
							<g>
								<g>
									<g>
										<polygon style="fill:#FFC35A;" points="47.809,170.03 49.734,163.628 51.626,169.969 49.371,176.679 										"/>
									</g>
									<g>
										<polygon style="fill:#FFC35A;" points="49.995,172 43.592,170.075 49.933,168.183 56.643,170.438 										"/>
									</g>
								</g>
							</g>
							<g>
								<g>
									<g>
										<polygon style="fill:#FFC35A;" points="48.537,134.513 50.462,128.111 52.354,134.452 50.099,141.162 										"/>
									</g>
									<g>
										<polygon style="fill:#FFC35A;" points="50.723,136.483 44.321,134.559 50.661,132.667 57.371,134.921 										"/>
									</g>
								</g>
							</g>
						</g>
					</g>
					<g>
						<g>
							<g>
								<rect x="33.096" y="40.935" style="fill:#FF3C6E;" width="158.992" height="65.997"/>
								<polygon style="fill:#FF3C6E;" points="129.495,103.583 149.495,129.083 149.995,99.083 								"/>
							</g>
							<g>
								<g>
									<g>
										<rect x="46.905" y="70.5" style="fill:#F9FDFE;" width="41.765" height="28.138"/>
										<polygon style="fill:#F9FDFE;" points="94.341,74.143 41.892,74.143 68.123,49.583 										"/>
									</g>
									<g>
										<rect x="69.764" y="76.744" style="fill:#FF3C6E;" width="12.186" height="21.912"/>
										<rect x="52.185" y="76.755" style="fill:#FF3C6E;" width="12.186" height="11.072"/>
									</g>
								</g>
								<g>
									<rect x="102.12" y="51.5" style="fill:#F9FDFE;" width="42.75" height="6.667"/>
									<rect x="102.12" y="64.125" style="fill:#F9FDFE;" width="70.25" height="6.667"/>
									<rect x="102.12" y="76.75" style="fill:#F9FDFE;" width="59.25" height="6.667"/>
									<rect x="102.12" y="89.375" style="fill:#F9FDFE;" width="79.75" height="6.667"/>
								</g>
							</g>
						</g>
						<g>
							<g>
								
									<rect x="308.578" y="67" transform="matrix(-1 -2.954582e-11 2.954582e-11 -1 776.1479 177.4313)" style="fill:#FF3C6E;" width="158.992" height="43.431"/>
								<polygon style="fill:#FF3C6E;" points="371.171,107.083 351.171,132.583 350.671,102.583 								"/>
							</g>
							<g>
								<polygon style="fill:#FFC35A;" points="327.587,85.119 330.407,79.179 333.767,84.939 340.296,85.437 335.567,90.459 
									337.127,97.18 331.007,93.46 325.307,97.18 326.087,90.579 320.554,85.76 								"/>
								<polygon style="fill:#FFC35A;" points="357.007,85.152 359.827,79.211 363.187,84.972 369.716,85.47 364.987,90.492 
									366.547,97.212 360.427,93.492 354.727,97.212 355.507,90.612 349.974,85.792 								"/>
								<polygon style="fill:#FFC35A;" points="386.427,85.122 389.247,79.182 392.607,84.942 399.136,85.44 394.407,90.462 
									395.967,97.183 389.847,93.463 384.147,97.183 384.927,90.582 379.394,85.763 								"/>
								<polygon style="fill:#FFC35A;" points="415.871,85.119 418.691,79.179 422.051,84.939 428.581,85.437 423.851,90.459 
									425.411,97.18 419.291,93.46 413.591,97.18 414.371,90.579 408.838,85.76 								"/>
								<polygon style="fill:#FFFFFF;" points="445.285,85.107 448.105,79.167 451.465,84.927 457.995,85.425 453.265,90.447 
									454.826,97.167 448.705,93.447 443.005,97.167 443.785,90.567 438.252,85.748 								"/>
							</g>
						</g>
					</g>
				</g>
				<g>
					<g>
						<g>
							<rect x="76.427" y="136.667" style="fill:#5E4966;" width="63.901" height="136.333"/>
							<g>
								<rect x="80.093" y="151.667" style="fill:#44334F;" width="57.235" height="7.5"/>
								<rect x="80.01" y="172.25" style="fill:#44334F;" width="57.235" height="7.5"/>
								<rect x="79.927" y="192.833" style="fill:#44334F;" width="57.235" height="7.5"/>
							</g>
						</g>
						<g>
							<g>
								<rect x="56.933" y="213" style="fill:#F3607A;" width="122.146" height="207.007"/>
								<g>
									<g>
										<g>
											<g>
												<rect x="62.44" y="225.555" style="fill:#CC4A6C;" width="23.43" height="24.514"/>
												<g>
													<rect x="64.683" y="227.794" style="fill:#F4CBD5;" width="18.944" height="19.82"/>
													<g style="opacity:0.25;">
														<polygon style="fill:#FFFFFF;" points="69.371,227.794 64.683,233.201 64.683,236.782 72.476,227.794 														
															"/>
														<polygon style="fill:#FFFFFF;" points="83.627,233.659 71.527,247.615 74.632,247.615 83.627,237.24 														
															"/>
														<polygon style="fill:#FFFFFF;" points="83.627,239.814 76.863,247.615 79.968,247.615 83.627,243.395 														
															"/>
														<polygon style="fill:#FFFFFF;" points="74.456,227.794 64.683,239.067 64.683,246.417 80.829,227.794 														
															"/>
													</g>
												</g>
											</g>
											<g>
												<rect x="91.578" y="225.564" style="fill:#CC4A6C;" width="23.43" height="24.514"/>
												<g>
													<rect x="93.821" y="227.803" style="fill:#F4CBD5;" width="18.944" height="19.82"/>
													<g style="opacity:0.25;">
														<polygon style="fill:#FFFFFF;" points="98.509,227.803 93.821,233.21 93.821,236.791 101.614,227.803 														
															"/>
														<polygon style="fill:#FFFFFF;" points="112.765,233.667 100.665,247.623 103.77,247.623 112.765,237.249 
																													"/>
														<polygon style="fill:#FFFFFF;" points="112.765,239.822 106.001,247.623 109.106,247.623 112.765,243.404 
																													"/>
														<polygon style="fill:#FFFFFF;" points="103.595,227.803 93.821,239.075 93.821,246.425 109.967,227.803 
																													"/>
													</g>
												</g>
											</g>
											<g>
												<rect x="120.716" y="225.556" style="fill:#CC4A6C;" width="23.43" height="24.514"/>
												<g>
													<rect x="122.959" y="227.795" style="fill:#F4CBD5;" width="18.944" height="19.82"/>
													<g style="opacity:0.25;">
														<polygon style="fill:#FFFFFF;" points="127.647,227.795 122.959,233.201 122.959,236.783 130.752,227.795 
																													"/>
														<polygon style="fill:#FFFFFF;" points="141.903,233.659 129.803,247.615 132.908,247.615 141.903,237.24 
																													"/>
														<polygon style="fill:#FFFFFF;" points="141.903,239.814 135.14,247.615 138.245,247.615 141.903,243.395 
																													"/>
														<polygon style="fill:#FFFFFF;" points="132.733,227.795 122.959,239.067 122.959,246.417 139.105,227.795 
																													"/>
													</g>
												</g>
											</g>
											<g>
												<rect x="149.871" y="225.566" style="fill:#CC4A6C;" width="23.43" height="24.514"/>
												<g>
													<rect x="152.114" y="227.805" style="fill:#F4CBD5;" width="18.944" height="19.82"/>
													<g style="opacity:0.25;">
														<polygon style="fill:#FFFFFF;" points="156.801,227.805 152.114,233.211 152.114,236.793 159.906,227.805 
																													"/>
														<polygon style="fill:#FFFFFF;" points="171.058,233.669 158.958,247.625 162.063,247.625 171.058,237.25 
																													"/>
														<polygon style="fill:#FFFFFF;" points="171.058,239.824 164.294,247.625 167.399,247.625 171.058,243.405 
																													"/>
														<polygon style="fill:#FFFFFF;" points="161.887,227.805 152.114,239.077 152.114,246.427 168.26,227.805 
																													"/>
													</g>
												</g>
											</g>
										</g>
										<g>
											<g>
												<rect x="62.168" y="267.393" style="fill:#CC4A6C;" width="23.43" height="24.514"/>
												<g>
													<rect x="64.411" y="269.633" style="fill:#F4CBD5;" width="18.944" height="19.82"/>
													<g style="opacity:0.25;">
														<polygon style="fill:#FFFFFF;" points="69.099,269.633 64.411,275.039 64.411,278.62 72.204,269.633 														
															"/>
														<polygon style="fill:#FFFFFF;" points="83.355,275.497 71.255,289.453 74.36,289.453 83.355,279.078 														
															"/>
														<polygon style="fill:#FFFFFF;" points="83.355,281.652 76.592,289.453 79.697,289.453 83.355,285.233 														
															"/>
														<polygon style="fill:#FFFFFF;" points="74.185,269.633 64.411,280.905 64.411,288.255 80.557,269.633 														
															"/>
													</g>
												</g>
											</g>
											<g>
												<rect x="91.306" y="267.402" style="fill:#CC4A6C;" width="23.43" height="24.514"/>
												<g>
													<rect x="93.549" y="269.641" style="fill:#F4CBD5;" width="18.944" height="19.82"/>
													<g style="opacity:0.25;">
														<polygon style="fill:#FFFFFF;" points="98.237,269.641 93.55,275.048 93.55,278.629 101.342,269.641 														
															"/>
														<polygon style="fill:#FFFFFF;" points="112.493,275.506 100.393,289.461 103.498,289.461 112.493,279.087 
																													"/>
														<polygon style="fill:#FFFFFF;" points="112.493,281.661 105.73,289.461 108.835,289.461 112.493,285.242 
																													"/>
														<polygon style="fill:#FFFFFF;" points="103.323,269.641 93.55,280.914 93.55,288.263 109.695,269.641 														
															"/>
													</g>
												</g>
											</g>
											<g>
												<rect x="120.444" y="267.394" style="fill:#CC4A6C;" width="23.43" height="24.514"/>
												<g>
													<rect x="122.688" y="269.633" style="fill:#F4CBD5;" width="18.944" height="19.82"/>
													<g style="opacity:0.25;">
														<polygon style="fill:#FFFFFF;" points="127.375,269.633 122.688,275.039 122.688,278.621 130.48,269.633 
																													"/>
														<polygon style="fill:#FFFFFF;" points="141.631,275.497 129.531,289.453 132.636,289.453 141.631,279.079 
																													"/>
														<polygon style="fill:#FFFFFF;" points="141.631,281.652 134.868,289.453 137.973,289.453 141.631,285.234 
																													"/>
														<polygon style="fill:#FFFFFF;" points="132.461,269.633 122.688,280.905 122.688,288.255 138.833,269.633 
																													"/>
													</g>
												</g>
											</g>
											<g>
												<rect x="149.599" y="267.404" style="fill:#CC4A6C;" width="23.43" height="24.514"/>
												<g>
													<rect x="151.842" y="269.643" style="fill:#F4CBD5;" width="18.944" height="19.82"/>
													<g style="opacity:0.25;">
														<polygon style="fill:#FFFFFF;" points="156.53,269.643 151.842,275.049 151.842,278.631 159.635,269.643 
																													"/>
														<polygon style="fill:#FFFFFF;" points="170.786,275.507 158.686,289.463 161.791,289.463 170.786,279.089 
																													"/>
														<polygon style="fill:#FFFFFF;" points="170.786,281.662 164.023,289.463 167.128,289.463 170.786,285.244 
																													"/>
														<polygon style="fill:#FFFFFF;" points="161.616,269.643 151.842,280.915 151.842,288.265 167.988,269.643 
																													"/>
													</g>
												</g>
											</g>
										</g>
										<g>
											<g>
												<rect x="61.897" y="309.232" style="fill:#CC4A6C;" width="23.43" height="24.514"/>
												<g>
													<rect x="64.14" y="311.471" style="fill:#F4CBD5;" width="18.944" height="19.82"/>
													<g style="opacity:0.25;">
														<polygon style="fill:#FFFFFF;" points="68.827,311.471 64.14,316.877 64.14,320.458 71.932,311.471 														"/>
														<polygon style="fill:#FFFFFF;" points="83.083,317.335 70.984,331.291 74.089,331.291 83.083,320.916 														
															"/>
														<polygon style="fill:#FFFFFF;" points="83.083,323.49 76.32,331.291 79.425,331.291 83.083,327.071 														"/>
														<polygon style="fill:#FFFFFF;" points="73.913,311.471 64.14,322.743 64.14,330.093 80.286,311.471 														"/>
													</g>
												</g>
											</g>
											<g>
												<rect x="91.035" y="309.24" style="fill:#CC4A6C;" width="23.43" height="24.514"/>
												<g>
													<rect x="93.278" y="311.479" style="fill:#F4CBD5;" width="18.944" height="19.82"/>
													<g style="opacity:0.25;">
														<polygon style="fill:#FFFFFF;" points="97.965,311.479 93.278,316.886 93.278,320.467 101.07,311.479 														
															"/>
														<polygon style="fill:#FFFFFF;" points="112.221,317.344 100.122,331.299 103.227,331.299 112.221,320.925 
																													"/>
														<polygon style="fill:#FFFFFF;" points="112.221,323.499 105.458,331.299 108.563,331.299 112.221,327.08 
																													"/>
														<polygon style="fill:#FFFFFF;" points="103.051,311.479 93.278,322.752 93.278,330.101 109.424,311.479 
																													"/>
													</g>
												</g>
											</g>
											<g>
												<rect x="120.173" y="309.232" style="fill:#CC4A6C;" width="23.43" height="24.514"/>
												<g>
													<rect x="122.416" y="311.471" style="fill:#F4CBD5;" width="18.944" height="19.82"/>
													<g style="opacity:0.25;">
														<polygon style="fill:#FFFFFF;" points="127.103,311.471 122.416,316.878 122.416,320.459 130.208,311.471 
																													"/>
														<polygon style="fill:#FFFFFF;" points="141.36,317.335 129.26,331.291 132.365,331.291 141.36,320.917 														
															"/>
														<polygon style="fill:#FFFFFF;" points="141.36,323.49 134.596,331.291 137.701,331.291 141.36,327.072 														
															"/>
														<polygon style="fill:#FFFFFF;" points="132.189,311.471 122.416,322.743 122.416,330.093 138.562,311.471 
																													"/>
													</g>
												</g>
											</g>
											<g>
												<rect x="149.327" y="309.242" style="fill:#CC4A6C;" width="23.43" height="24.514"/>
												<g>
													<rect x="151.571" y="311.481" style="fill:#F4CBD5;" width="18.944" height="19.82"/>
													<g style="opacity:0.25;">
														<polygon style="fill:#FFFFFF;" points="156.258,311.481 151.571,316.888 151.571,320.469 159.363,311.481 
																													"/>
														<polygon style="fill:#FFFFFF;" points="170.514,317.346 158.414,331.301 161.519,331.301 170.514,320.927 
																													"/>
														<polygon style="fill:#FFFFFF;" points="170.514,323.5 163.751,331.301 166.856,331.301 170.514,327.082 
																													"/>
														<polygon style="fill:#FFFFFF;" points="161.344,311.481 151.571,322.753 151.571,330.103 167.716,311.481 
																													"/>
													</g>
												</g>
											</g>
										</g>
										<g>
											<g>
												<rect x="61.625" y="351.07" style="fill:#CC4A6C;" width="23.43" height="24.514"/>
												<g>
													<rect x="63.868" y="353.309" style="fill:#F4CBD5;" width="18.944" height="19.82"/>
													<g style="opacity:0.25;">
														<polygon style="fill:#FFFFFF;" points="68.556,353.309 63.868,358.715 63.868,362.297 71.661,353.309 														
															"/>
														<polygon style="fill:#FFFFFF;" points="82.812,359.173 70.712,373.129 73.817,373.129 82.812,362.754 														
															"/>
														<polygon style="fill:#FFFFFF;" points="82.812,365.328 76.048,373.129 79.153,373.129 82.812,368.909 														
															"/>
														<polygon style="fill:#FFFFFF;" points="73.641,353.309 63.868,364.581 63.868,371.931 80.014,353.309 														
															"/>
													</g>
												</g>
											</g>
											<g>
												<rect x="90.763" y="351.078" style="fill:#CC4A6C;" width="23.43" height="24.514"/>
												<g>
													<rect x="93.006" y="353.317" style="fill:#F4CBD5;" width="18.944" height="19.82"/>
													<g style="opacity:0.25;">
														<polygon style="fill:#FFFFFF;" points="97.694,353.317 93.006,358.724 93.006,362.305 100.799,353.317 														
															"/>
														<polygon style="fill:#FFFFFF;" points="111.95,359.182 99.85,373.137 102.955,373.137 111.95,362.763 														
															"/>
														<polygon style="fill:#FFFFFF;" points="111.95,365.337 105.186,373.137 108.291,373.137 111.95,368.918 
																													"/>
														<polygon style="fill:#FFFFFF;" points="102.78,353.317 93.006,364.59 93.006,371.94 109.152,353.317 														
															"/>
													</g>
												</g>
											</g>
											<g>
												<rect x="119.901" y="351.07" style="fill:#CC4A6C;" width="23.43" height="24.514"/>
												<g>
													<rect x="122.144" y="353.309" style="fill:#F4CBD5;" width="18.944" height="19.82"/>
													<g style="opacity:0.25;">
														<polygon style="fill:#FFFFFF;" points="126.832,353.309 122.144,358.716 122.144,362.297 129.937,353.309 
																													"/>
														<polygon style="fill:#FFFFFF;" points="141.088,359.174 128.988,373.129 132.093,373.129 141.088,362.755 
																													"/>
														<polygon style="fill:#FFFFFF;" points="141.088,365.329 134.325,373.129 137.429,373.129 141.088,368.91 
																													"/>
														<polygon style="fill:#FFFFFF;" points="131.918,353.309 122.144,364.582 122.144,371.931 138.29,353.309 
																													"/>
													</g>
												</g>
											</g>
											<g>
												<rect x="149.056" y="351.08" style="fill:#CC4A6C;" width="23.43" height="24.514"/>
												<g>
													<rect x="151.299" y="353.319" style="fill:#F4CBD5;" width="18.944" height="19.82"/>
													<g style="opacity:0.25;">
														<polygon style="fill:#FFFFFF;" points="155.986,353.319 151.299,358.726 151.299,362.307 159.091,353.319 
																													"/>
														<polygon style="fill:#FFFFFF;" points="170.243,359.184 158.143,373.139 161.248,373.139 170.243,362.765 
																													"/>
														<polygon style="fill:#FFFFFF;" points="170.243,365.339 163.479,373.139 166.584,373.139 170.243,368.92 
																													"/>
														<polygon style="fill:#FFFFFF;" points="161.072,353.319 151.299,364.592 151.299,371.941 167.445,353.319 
																													"/>
													</g>
												</g>
											</g>
										</g>
									</g>
									<g>
										<rect x="75.752" y="387.498" style="fill:#CC4A6C;" width="22.277" height="32.43"/>
										<rect x="137.966" y="387.578" style="fill:#CC4A6C;" width="22.277" height="32.43"/>
									</g>
								</g>
							</g>
							<g>
								<g>
									<g>
										<rect x="404.81" y="139.628" style="fill:#F3607A;" width="17.907" height="33.036"/>
										<rect x="403.575" y="137.544" style="fill:#F3607A;" width="20.223" height="8.568"/>
									</g>
									<g>
										<rect x="357.494" y="148.736" style="fill:#F3607A;" width="25.51" height="2.547"/>
										<rect x="363.128" y="136" style="fill:#F3607A;" width="3.396" height="41.372"/>
										<rect x="374.475" y="145.262" style="fill:#F3607A;" width="3.396" height="41.372"/>
									</g>
								</g>
								<g>
									<rect x="322.588" y="175.209" style="fill:#F3607A;" width="117.833" height="244.791"/>
									<g>
										<g>
											<rect x="319.69" y="161.549" style="fill:#DDA8B3;" width="123.938" height="16.222"/>
											<rect x="319.69" y="222.035" style="fill:#DDA8B3;" width="123.938" height="16.222"/>
											<rect x="319.481" y="282.591" style="fill:#DDA8B3;" width="123.938" height="16.222"/>
											<rect x="319.637" y="343.321" style="fill:#DDA8B3;" width="123.938" height="16.222"/>
										</g>
										<g>
											<g>
												<rect x="322.584" y="177.729" style="fill:#CC4A6C;" width="117.83" height="2.422"/>
												<g>
													<rect x="330.42" y="184.589" style="fill:#CC4A6C;" width="102.466" height="23.504"/>
													<g>
														<rect x="333.066" y="187.523" style="fill:#F4CBD5;" width="97.237" height="17.367"/>
														<g>
															<defs>
																<rect id="SVGID_1_" x="333.066" y="187.523" width="97.237" height="17.367"/>
															</defs>
															<clipPath id="SVGID_00000156578853041514997630000013166703553249310354_">
																<use xlink:href="#SVGID_1_"  style="overflow:visible;"/>
															</clipPath>
															<g style="opacity:0.3;clip-path:url(#SVGID_00000156578853041514997630000013166703553249310354_);">
																
																	<rect x="324.197" y="188.68" transform="matrix(0.6488 -0.761 0.761 0.6488 -25.8039 324.8485)" style="fill:#FFFFFF;" width="29.64" height="3.396"/>
																
																	<rect x="327.902" y="194.585" transform="matrix(0.6488 -0.761 0.761 0.6488 -28.9961 329.7418)" style="fill:#FFFFFF;" width="29.64" height="3.396"/>
																
																	<rect x="339.283" y="195.139" transform="matrix(0.6488 -0.761 0.761 0.6488 -25.3385 340.7827)" style="fill:#FFFFFF;" width="34.457" height="5.404"/>
																
																	<rect x="375.87" y="193.518" transform="matrix(0.6488 -0.761 0.761 0.6488 -11.255 368.055)" style="fill:#FFFFFF;" width="34.457" height="5.404"/>
																
																	<rect x="397.019" y="193.132" transform="matrix(0.6488 -0.761 0.761 0.6488 -3.5333 384.0137)" style="fill:#FFFFFF;" width="34.457" height="5.404"/>
																
																	<rect x="349.397" y="192.977" transform="matrix(0.6488 -0.761 0.761 0.6488 -19.1399 347.257)" style="fill:#FFFFFF;" width="34.457" height="2.773"/>
																
																	<rect x="354.144" y="193.903" transform="matrix(0.6488 -0.761 0.761 0.6488 -18.1775 351.1946)" style="fill:#FFFFFF;" width="34.457" height="2.773"/>
																
																	<rect x="367.575" y="195.061" transform="matrix(0.6488 -0.761 0.761 0.6488 -14.3415 361.8217)" style="fill:#FFFFFF;" width="34.457" height="2.773"/>
																
																	<rect x="382.163" y="196.913" transform="matrix(0.6488 -0.761 0.761 0.6488 -10.6275 373.5737)" style="fill:#FFFFFF;" width="34.457" height="2.773"/>
																
																	<rect x="403.158" y="196.605" transform="matrix(0.6488 -0.761 0.761 0.6488 -3.0187 389.4419)" style="fill:#FFFFFF;" width="34.457" height="2.773"/>
																
																	<rect x="409.796" y="201.853" transform="matrix(0.6488 -0.761 0.761 0.6488 -4.681 396.3378)" style="fill:#FFFFFF;" width="34.457" height="2.773"/>
															</g>
														</g>
													</g>
												</g>
											</g>
											<g>
												<rect x="322.59" y="238.257" style="fill:#CC4A6C;" width="117.83" height="2.422"/>
												<g>
													<rect x="330.426" y="245.117" style="fill:#CC4A6C;" width="102.466" height="23.504"/>
													<g>
														<rect x="333.072" y="248.051" style="fill:#F4CBD5;" width="97.237" height="17.367"/>
														<g>
															<defs>
																
																	<rect id="SVGID_00000170263505406325927560000008324813162510613688_" x="333.072" y="248.051" width="97.237" height="17.367"/>
															</defs>
															<clipPath id="SVGID_00000080890732499738852530000013749604733700279956_">
																<use xlink:href="#SVGID_00000170263505406325927560000008324813162510613688_"  style="overflow:visible;"/>
															</clipPath>
															<g style="opacity:0.3;clip-path:url(#SVGID_00000080890732499738852530000013749604733700279956_);">
																
																	<rect x="324.202" y="249.208" transform="matrix(0.6488 -0.761 0.761 0.6488 -71.8624 346.1113)" style="fill:#FFFFFF;" width="29.64" height="3.396"/>
																
																	<rect x="327.907" y="255.113" transform="matrix(0.6488 -0.761 0.761 0.6488 -75.0546 351.0046)" style="fill:#FFFFFF;" width="29.64" height="3.396"/>
																
																	<rect x="339.289" y="255.667" transform="matrix(0.6488 -0.761 0.761 0.6488 -71.397 362.0454)" style="fill:#FFFFFF;" width="34.457" height="5.404"/>
																
																	<rect x="375.875" y="254.046" transform="matrix(0.6488 -0.761 0.761 0.6488 -57.3135 389.3178)" style="fill:#FFFFFF;" width="34.457" height="5.404"/>
																
																	<rect x="397.025" y="253.66" transform="matrix(0.6488 -0.761 0.761 0.6488 -49.5917 405.2765)" style="fill:#FFFFFF;" width="34.457" height="5.404"/>
																
																	<rect x="349.402" y="253.505" transform="matrix(0.6488 -0.761 0.761 0.6488 -65.1983 368.5197)" style="fill:#FFFFFF;" width="34.457" height="2.773"/>
																
																	<rect x="354.149" y="254.431" transform="matrix(0.6488 -0.761 0.761 0.6488 -64.2359 372.4574)" style="fill:#FFFFFF;" width="34.457" height="2.773"/>
																
																	<rect x="367.58" y="255.589" transform="matrix(0.6488 -0.761 0.761 0.6488 -60.3999 383.0844)" style="fill:#FFFFFF;" width="34.457" height="2.773"/>
																
																	<rect x="382.168" y="257.442" transform="matrix(0.6488 -0.761 0.761 0.6488 -56.6859 394.8364)" style="fill:#FFFFFF;" width="34.457" height="2.773"/>
																
																	<rect x="403.163" y="257.133" transform="matrix(0.6488 -0.761 0.761 0.6488 -49.0771 410.7047)" style="fill:#FFFFFF;" width="34.457" height="2.773"/>
																
																	<rect x="409.802" y="262.382" transform="matrix(0.6488 -0.761 0.761 0.6488 -50.7395 417.6006)" style="fill:#FFFFFF;" width="34.457" height="2.773"/>
															</g>
														</g>
													</g>
												</g>
											</g>
											<g>
												<rect x="322.587" y="298.811" style="fill:#CC4A6C;" width="117.83" height="2.422"/>
												<g>
													<rect x="330.423" y="305.671" style="fill:#CC4A6C;" width="102.466" height="23.504"/>
													<g>
														<rect x="333.069" y="308.605" style="fill:#F4CBD5;" width="97.237" height="17.367"/>
														<g>
															<defs>
																
																	<rect id="SVGID_00000114766885079883283090000014836092624434947219_" x="333.069" y="308.605" width="97.237" height="17.367"/>
															</defs>
															<clipPath id="SVGID_00000171680304904515186980000004261439078288585109_">
																<use xlink:href="#SVGID_00000114766885079883283090000014836092624434947219_"  style="overflow:visible;"/>
															</clipPath>
															<g style="opacity:0.3;clip-path:url(#SVGID_00000171680304904515186980000004261439078288585109_);">
																
																	<rect x="324.2" y="309.762" transform="matrix(0.6488 -0.761 0.761 0.6488 -117.9433 367.3773)" style="fill:#FFFFFF;" width="29.64" height="3.396"/>
																
																	<rect x="327.905" y="315.667" transform="matrix(0.6488 -0.761 0.761 0.6488 -121.1354 372.2706)" style="fill:#FFFFFF;" width="29.64" height="3.396"/>
																
																	<rect x="339.286" y="316.221" transform="matrix(0.6488 -0.761 0.761 0.6488 -117.4779 383.3114)" style="fill:#FFFFFF;" width="34.457" height="5.404"/>
																
																	<rect x="375.873" y="314.6" transform="matrix(0.6488 -0.761 0.761 0.6488 -103.3944 410.5838)" style="fill:#FFFFFF;" width="34.457" height="5.404"/>
																
																	<rect x="397.023" y="314.214" transform="matrix(0.6488 -0.761 0.761 0.6488 -95.6726 426.5425)" style="fill:#FFFFFF;" width="34.457" height="5.404"/>
																
																	<rect x="349.4" y="314.059" transform="matrix(0.6488 -0.761 0.761 0.6488 -111.2791 389.7857)" style="fill:#FFFFFF;" width="34.457" height="2.773"/>
																
																	<rect x="354.147" y="314.985" transform="matrix(0.6488 -0.761 0.761 0.6488 -110.3167 393.7234)" style="fill:#FFFFFF;" width="34.457" height="2.773"/>
																
																	<rect x="367.578" y="316.143" transform="matrix(0.6488 -0.761 0.761 0.6488 -106.4807 404.3503)" style="fill:#FFFFFF;" width="34.457" height="2.773"/>
																
																	<rect x="382.166" y="317.995" transform="matrix(0.6488 -0.761 0.761 0.6488 -102.7667 416.1024)" style="fill:#FFFFFF;" width="34.457" height="2.773"/>
																
																	<rect x="403.161" y="317.687" transform="matrix(0.6488 -0.761 0.761 0.6488 -95.1579 431.9706)" style="fill:#FFFFFF;" width="34.457" height="2.773"/>
																
																	<rect x="409.799" y="322.935" transform="matrix(0.6488 -0.761 0.761 0.6488 -96.8204 438.8667)" style="fill:#FFFFFF;" width="34.457" height="2.773"/>
															</g>
														</g>
													</g>
												</g>
											</g>
											<g>
												<rect x="322.59" y="359.539" style="fill:#CC4A6C;" width="117.83" height="2.422"/>
												<g>
													<rect x="359.037" y="366.399" style="fill:#CC4A6C;" width="45.155" height="50.794"/>
													<rect x="361.739" y="369.333" style="fill:#C93D5B;" width="39.906" height="44.851"/>
												</g>
											</g>
										</g>
									</g>
								</g>
							</g>
						</g>
					</g>
					<g>
						<g>
							<g>
								<rect x="305.392" y="357.474" style="fill:#543F5E;" width="107.261" height="80.057"/>
								<g>
									<polygon style="fill:#5E4966;" points="420.426,371.853 293.733,371.853 308.839,332.306 406.436,332.301 									"/>
									<rect x="377.677" y="319" style="fill:#5E4966;" width="14.379" height="24.502"/>
								</g>
							</g>
							<g>
								<rect x="305.392" y="371.756" style="fill:#44334F;" width="107.164" height="4.955"/>
								<g>
									<polygon style="fill:#543F5E;" points="371.75,359.417 385.478,336.537 401.287,359.001 									"/>
									<g>
										<polygon style="fill:#C4AFCE;" points="376.102,356.6 385.604,340.763 396.546,356.312 										"/>
										<g style="opacity:0.25;">
											<polygon style="fill:#FFFFFF;" points="390.082,347.126 381.915,356.518 386.37,356.455 392.05,349.923 											"/>
											<polygon style="fill:#FFFFFF;" points="392.727,350.885 387.902,356.434 390.753,356.393 393.987,352.675 											"/>
											<polygon style="fill:#FFFFFF;" points="387.283,343.148 377.252,354.684 376.102,356.6 378.43,356.567 388.542,344.938 
																							"/>
										</g>
									</g>
								</g>
								<g>
									<g>
										<rect x="376.9" y="383.318" style="fill:#44334F;" width="24.095" height="53.436"/>
										<g>
											<rect x="379.037" y="385.553" style="fill:#C4AFCE;" width="20.014" height="24.775"/>
											<g style="opacity:0.25;">
												<polygon style="fill:#FFFFFF;" points="399.052,395.348 386.026,410.328 390.426,410.328 399.052,400.408 												
													"/>
												<polygon style="fill:#FFFFFF;" points="388.611,385.553 379.037,396.562 379.037,401.622 393.011,385.553 												
													"/>
												<polygon style="fill:#FFFFFF;" points="399.052,385.553 395.21,385.553 379.037,404.15 379.037,410.328 
													383.667,410.328 399.052,392.635 												"/>
											</g>
										</g>
									</g>
									<g>
										<rect x="314.331" y="383.391" style="fill:#44334F;" width="54.797" height="30.046"/>
										<g>
											<rect x="317.003" y="385.893" style="fill:#C4AFCE;" width="49.21" height="24.824"/>
											<g style="opacity:0.25;">
												<polygon style="fill:#FFFFFF;" points="321.303,385.893 317.003,390.837 317.003,399.001 328.402,385.893 												
													"/>
												<polygon style="fill:#FFFFFF;" points="366.213,385.893 365.083,385.893 343.496,410.716 350.596,410.716 
													366.213,392.757 												"/>
												<polygon style="fill:#FFFFFF;" points="348.067,385.893 326.481,410.716 330.881,410.716 352.467,385.893 												
													"/>
												<polygon style="fill:#FFFFFF;" points="335.707,385.893 317.003,407.402 317.003,410.716 324.122,410.716 
													345.708,385.893 												"/>
											</g>
										</g>
									</g>
								</g>
							</g>
						</g>
						<g>
							<g>
								<rect x="83.652" y="352.4" style="fill:#543F5E;" width="111.814" height="83.455"/>
								<g>
									<polygon style="fill:#5E4966;" points="203.568,367.389 71.498,367.389 87.245,331.338 188.984,331.333 									"/>
								</g>
							</g>
							<rect x="83.652" y="367.288" style="fill:#44334F;" width="111.713" height="5.165"/>
							<g>
								<path style="fill:#44334F;" d="M117.378,435.855H92.261v-45.371c0-5.707,4.626-10.333,10.333-10.333h4.451
									c5.707,0,10.333,4.626,10.333,10.333V435.855z"/>
								<g>
									<path style="fill:#C4AFCE;" d="M115.353,408.307H94.489v-17.243c0-4.74,3.843-8.583,8.583-8.583h3.697
										c4.74,0,8.583,3.843,8.583,8.583V408.307z"/>
									<g style="opacity:0.25;">
										<path style="fill:#FFFFFF;" d="M115.353,392.692l-0.011,0.012c0.001,0.07,0.011,0.138,0.011,0.208V392.692z"/>
										<path style="fill:#FFFFFF;" d="M106.361,408.307l8.992-10.341v-5.054c0-0.07-0.009-0.138-0.011-0.208l-13.568,15.603
											H106.361z"/>
										<path style="fill:#FFFFFF;" d="M104.469,382.48l-0.021,0.024c0.158-0.007,0.313-0.024,0.472-0.024H104.469z"/>
										<path style="fill:#FFFFFF;" d="M104.921,382.48c-0.159,0-0.315,0.017-0.472,0.024l-9.96,11.453v5.275l14.008-16.109
											C107.38,382.714,106.179,382.48,104.921,382.48z"/>
										<path style="fill:#FFFFFF;" d="M110.129,383.882l-15.64,17.985v6.439h4.826l15.686-18.039
											C114.289,387.544,112.509,385.258,110.129,383.882z"/>
									</g>
								</g>
							</g>
							<g>
								<path style="fill:#44334F;" d="M149.741,409.345v-16.278c0-6.406-5.193-11.6-11.6-11.6s-11.6,5.193-11.6,11.6v16.278
									H149.741z"/>
								<g>
									<path style="fill:#C4AFCE;" d="M147.87,407.473h-19.271v-15.927c0-4.378,3.549-7.928,7.928-7.928h3.415
										c4.378,0,7.928,3.549,7.928,7.928V407.473z"/>
									<g style="opacity:0.25;">
										<path style="fill:#FFFFFF;" d="M147.87,393.051l-0.01,0.011c0.001,0.065,0.01,0.128,0.01,0.192V393.051z"/>
										<path style="fill:#FFFFFF;" d="M139.564,407.473l8.305-9.551v-4.668c0-0.065-0.008-0.128-0.01-0.192l-12.532,14.411
											H139.564z"/>
										<path style="fill:#FFFFFF;" d="M137.818,383.619l-0.019,0.022c0.146-0.007,0.289-0.022,0.436-0.022H137.818z"/>
										<path style="fill:#FFFFFF;" d="M138.235,383.619c-0.147,0-0.291,0.015-0.436,0.022l-9.199,10.579v4.872l12.939-14.879
											C140.506,383.835,139.397,383.619,138.235,383.619z"/>
										<path style="fill:#FFFFFF;" d="M143.045,384.914l-14.445,16.612v5.948h4.458l14.489-16.661
											C146.887,388.296,145.243,386.185,143.045,384.914z"/>
									</g>
								</g>
							</g>
						</g>
					</g>
				</g>
			</g>
			<g>
				<g>
					<g>
						<path style="fill:#24162B;" d="M327.855,449.487H172.088c-6.522,0-11.809-5.287-11.809-11.809V132.906
							c0-6.522,5.287-11.809,11.809-11.809h155.767c6.522,0,11.809,5.287,11.809,11.809v304.772
							C339.664,444.2,334.377,449.487,327.855,449.487z"/>
						<path style="fill:#3B2742;" d="M289.901,133.646H210.13c-1.352,0-2.448-1.096-2.448-2.448l0,0
							c0-1.352,1.096-2.448,2.448-2.448h79.771c1.352,0,2.448,1.096,2.448,2.448l0,0
							C292.349,132.55,291.253,133.646,289.901,133.646z"/>
					</g>
					<g>
						<rect x="167.005" y="143" style="fill:#FFFFFF;" width="165.932" height="276.5"/>
						<g>
							<rect x="167.005" y="165.5" style="fill:#BFBFBF;" width="165.932" height="230.5"/>
							<g>
								<rect x="166.995" y="195.667" style="fill:#FFFFFF;" width="165.75" height="12"/>
								<rect x="198.828" y="255.583" style="fill:#FFFFFF;" width="134.108" height="12"/>
								<rect x="242.786" y="345.542" style="fill:#FFFFFF;" width="90.126" height="12"/>
								<rect x="167.015" y="314.44" style="fill:#FFFFFF;" width="35.729" height="12"/>
								<rect x="279.495" y="158" style="fill:#FFFFFF;" width="12.5" height="107.5"/>
								<rect x="242.828" y="259.333" style="fill:#FFFFFF;" width="12.5" height="94.167"/>
								<rect x="198.828" y="261" style="fill:#FFFFFF;" width="12.5" height="150.333"/>
							</g>
						</g>
					</g>
				</g>
				<g>
					<g>
						<g>
							<g>
								<circle style="fill:#FF3C6E;" cx="223.661" cy="224.333" r="30.455"/>
								<polygon style="fill:#FF3C6E;" points="248.045,242.653 198.538,241.664 222.666,273.805 								"/>
							</g>
						</g>
						<circle style="fill:#FFFFFF;" cx="223.83" cy="215.894" r="12.303"/>
					</g>
					<g>
						<g>
							<path style="fill:#3B2742;" d="M320.465,249.509c-3.095-26.453-27.122-45.46-53.588-42.364
								c-26.454,3.095-45.458,27.134-42.364,53.587c1.497,12.796,7.901,24.254,18.033,32.264
								c8.626,6.82,19.061,10.434,29.868,10.434c1.887,0,3.784-0.11,5.686-0.332h0.001
								C304.554,300.002,323.559,275.963,320.465,249.509z M301.712,278.224c-6.182,7.819-15.021,12.761-24.893,13.915
								c-20.408,2.397-38.96-12.276-41.349-32.688c-1.154-9.872,1.614-19.614,7.795-27.433c6.182-7.818,15.021-12.76,24.893-13.915
								c9.874-1.152,19.614,1.613,27.433,7.794c7.819,6.181,12.761,15.021,13.915,24.893
								C310.662,260.662,307.893,270.405,301.712,278.224z"/>
							
								<rect x="273.924" y="294.318" transform="matrix(0.9932 -0.1162 0.1162 0.9932 -35.3164 34.7071)" style="fill:#3B2742;" width="12.315" height="52.005"/>
						</g>
						<path style="fill:#24162B;" d="M290.153,403.187l-0.663,0.078c-5.508,0.644-10.496-3.299-11.14-8.807l-6.437-55.027
							c-0.644-5.508,3.299-10.496,8.807-11.14l0.663-0.078c5.508-0.644,10.496,3.299,11.14,8.807l6.437,55.027
							C299.604,397.555,295.661,402.543,290.153,403.187z"/>
					</g>
				</g>
			</g>
		</g>
	</g>
</g>
</svg>
