<svg width="36" height="36" viewBox="0 0 36 36" fill="none" xmlns="http://www.w3.org/2000/svg">
<g clip-path="url(#clip0_1348_963)">
<path d="M18 22.4888C15.5147 22.4888 13.5 24.5035 13.5 26.9888V35.9888H22.5V26.9888C22.5 24.5035 20.4853 22.4888 18 22.4888Z" fill="#1D1F2C"/>
<path d="M25.5 26.9893V35.9893H31.5C33.9853 35.9893 36 33.9746 36 31.4893V17.8078C36.0004 17.0286 35.6975 16.2797 35.1555 15.7198L22.4085 1.93928C20.1594 -0.494236 16.3633 -0.64365 13.9298 1.60551C13.8142 1.71238 13.7029 1.82369 13.596 1.93928L0.871524 15.7153C0.313102 16.2775 -0.000210831 17.0379 1.06441e-07 17.8303V31.4893C1.06441e-07 33.9746 2.01473 35.9893 4.5 35.9893H10.5V26.9893C10.528 22.8991 13.8304 19.559 17.8176 19.4628C21.9382 19.3633 25.4686 22.7604 25.5 26.9893Z" fill="#1D1F2C"/>
<path d="M18 22.4893C15.5147 22.4893 13.5 24.504 13.5 26.9893V35.9893H22.5V26.9893C22.5 24.504 20.4853 22.4893 18 22.4893Z" fill="#1D1F2C"/>
</g>
<defs>
<clipPath id="clip0_1348_963">
<rect width="36" height="36" fill="white"/>
</clipPath>
</defs>
</svg>
