<svg width="38" height="38" viewBox="0 0 38 38" fill="none" xmlns="http://www.w3.org/2000/svg">
<circle cx="19" cy="19" r="19" fill="#E9D9B5"/>
<path d="M12.6364 18H25.3636C25.5324 18 25.6943 18.0527 25.8136 18.1464C25.933 18.2402 26 18.3674 26 18.5C26 18.6326 25.933 18.7598 25.8136 18.8536C25.6943 18.9473 25.5324 19 25.3636 19H12.6364C12.4676 19 12.3057 18.9473 12.1864 18.8536C12.067 18.7598 12 18.6326 12 18.5C12 18.3674 12.067 18.2402 12.1864 18.1464C12.3057 18.0527 12.4676 18 12.6364 18Z" fill="black"/>
<path d="M12.5369 18.5L17.8134 23.8891C17.9329 24.0112 18 24.1767 18 24.3493C18 24.5218 17.9329 24.6874 17.8134 24.8094C17.694 24.9314 17.5319 25 17.363 25C17.1941 25 17.032 24.9314 16.9126 24.8094L11.1869 18.9601C11.1277 18.8998 11.0807 18.8281 11.0486 18.7491C11.0165 18.6701 11 18.5855 11 18.5C11 18.4145 11.0165 18.3299 11.0486 18.2509C11.0807 18.1719 11.1277 18.1002 11.1869 18.0399L16.9126 12.1906C17.032 12.0686 17.1941 12 17.363 12C17.5319 12 17.694 12.0686 17.8134 12.1906C17.9329 12.3126 18 12.4782 18 12.6507C18 12.8233 17.9329 12.9888 17.8134 13.1109L12.5369 18.5Z" fill="black"/>
</svg>
