<svg width="18" height="12" viewBox="0 0 18 12" fill="none" xmlns="http://www.w3.org/2000/svg">
<path fill-rule="evenodd" clip-rule="evenodd" d="M2.86223 0.830706C2.97738 1.0939 4.26868 2.17957 4.45785 2.51679C4.40027 2.57437 4.44962 2.54147 4.35093 2.61549C4.33448 2.62371 4.2111 2.68951 4.18643 2.69774C3.42975 3.07608 2.74709 3.57779 2.08088 4.06306C1.60384 4.40027 0.22207 5.61755 0 5.97944C0.123372 6.34955 1.76833 7.7231 2.22892 8.04387L3.48732 8.9157C3.91501 9.17066 4.39205 9.44208 4.87731 9.65593C6.94174 10.5607 8.8828 10.9143 11.1117 10.281C11.3914 10.1988 11.7121 10.0672 11.9671 10.026L13.974 12C14.1549 11.8602 14.7471 11.3009 14.8293 11.1282L3.71762 0C3.43797 0.263194 3.14188 0.600411 2.86223 0.830706ZM10.7992 8.8499L9.65593 7.67375C9.15422 7.7889 8.99794 7.93694 8.43043 7.7889C8.01097 7.68197 7.74777 7.5257 7.53393 7.30363C6.71145 6.48115 7.11446 5.58465 7.18026 5.17341C6.84304 4.94311 6.28376 4.16998 5.96299 4.04661C4.62234 6.06991 5.70802 9.12132 8.43043 9.45853C9.01439 9.53256 9.78753 9.42563 10.3057 9.16244C10.4866 9.07197 10.6923 8.97327 10.7992 8.8499Z" fill="black"/>
<path fill-rule="evenodd" clip-rule="evenodd" d="M7.4846 1.51325L7.13916 1.5955C7.22963 1.78467 7.23786 1.76 7.39413 1.8916L8.05211 2.57425L8.22484 2.56603C9.12956 2.58248 9.68063 2.40153 10.7499 3.08419C11.3174 3.44608 11.8602 4.07939 12.1398 4.86898C12.584 6.1356 12.0987 6.58796 12.3372 6.85116C12.4688 6.99098 12.5922 7.10613 12.732 7.24595L14.3276 8.82511C14.9363 8.57014 17.5435 6.46459 17.6916 5.97933C17.2639 5.24732 15.035 3.59413 14.1138 3.04307C13.1433 2.45088 12.0576 1.92449 10.8403 1.64485C9.52436 1.34053 8.80057 1.40633 7.4846 1.51325Z" fill="black"/>
</svg>
