<svg width="60" height="60" viewBox="0 0 20 20" fill="none" xmlns="http://www.w3.org/2000/svg">
<path d="M0.133497 12.4766C0.0168497 12.0228 -0.041475 11.7959 0.0335944 11.5525C0.0935031 11.3582 0.259236 11.1468 0.434401 11.0413C0.653894 10.9091 0.925437 10.9091 1.46852 10.9091L11.3653 10.9091L9.26229 12.9935C8.9041 13.3486 8.9041 13.9242 9.26229 14.2792C9.62048 14.6342 10.2012 14.6342 10.5594 14.2792L14.2282 10.6428C14.5864 10.2878 14.5864 9.7122 14.2282 9.35718L10.5594 5.72081C10.2012 5.36579 9.62048 5.36579 9.26229 5.72081C8.9041 6.07583 8.9041 6.65144 9.26229 7.00646L11.3653 9.09091L1.46852 9.09091C0.925438 9.09091 0.653894 9.09091 0.434401 8.95869C0.259236 8.85318 0.0935052 8.64181 0.0335966 8.44752C-0.0414728 8.20406 0.01685 7.97717 0.133498 7.5234C1.24527 3.19846 5.20121 -1.4978e-06 9.91085 -8.82022e-07C15.4829 -1.53483e-07 20 4.47715 20 10C20 15.5228 15.4829 20 9.91084 20C5.20121 20 1.24527 16.8015 0.133497 12.4766Z" fill="#007AFF"/>
</svg>