<svg width="26" height="20" viewBox="0 0 26 20" fill="none" xmlns="http://www.w3.org/2000/svg">
<path d="M26 10C26 9.70531 25.8859 9.4227 25.6827 9.21432C25.4795 9.00595 25.204 8.88889 24.9167 8.88889H1.08333C0.796016 8.88889 0.520466 9.00595 0.317301 9.21432C0.114137 9.4227 0 9.70531 0 10C0 10.2947 0.114137 10.5773 0.317301 10.7857C0.520466 10.994 0.796016 11.1111 1.08333 11.1111H24.9167C25.204 11.1111 25.4795 10.994 25.6827 10.7857C25.8859 10.5773 26 10.2947 26 10ZM1.08333 17.7778H24.9167C25.204 17.7778 25.4795 17.8948 25.6827 18.1032C25.8859 18.3116 26 18.5942 26 18.8889C26 19.1836 25.8859 19.4662 25.6827 19.6746C25.4795 19.8829 25.204 20 24.9167 20H1.08333C0.796016 20 0.520466 19.8829 0.317301 19.6746C0.114137 19.4662 0 19.1836 0 18.8889C0 18.5942 0.114137 18.3116 0.317301 18.1032C0.520466 17.8948 0.796016 17.7778 1.08333 17.7778ZM24.9167 2.22222H1.08333C0.796016 2.22222 0.520466 2.10516 0.317301 1.89679C0.114137 1.68841 0 1.4058 0 1.11111C0 0.816425 0.114137 0.53381 0.317301 0.325436C0.520466 0.117062 0.796016 0 1.08333 0H24.9167C25.204 0 25.4795 0.117062 25.6827 0.325436C25.8859 0.53381 26 0.816425 26 1.11111C26 1.4058 25.8859 1.68841 25.6827 1.89679C25.4795 2.10516 25.204 2.22222 24.9167 2.22222Z" fill="black"/>
</svg>
